HIERARCHY
ROOT Hips
{
	OFFSET 0.000000 71.427986 0.000000
	CHANNELS 6 Xposition Yposition Zposition Xrotation Yrotation Zrotation
	JOINT Pelvis
	{
		OFFSET 0.000000 0.000000 0.000000
		CHANNELS 3 Xrotation Yrotation Zrotation
		JOINT LeftUpLeg
		{
			OFFSET 6.797100 -2.508499 -1.318700
			CHANNELS 3 Xrotation Yrotation Zrotation
			JOINT LeftLeg
			{
				OFFSET 0.069008 -29.241863 0.690200
				CHANNELS 3 Xrotation Yrotation Zrotation
				JOINT LeftFoot
				{
					OFFSET -0.069008 -29.568123 -0.266800
					CHANNELS 3 Xrotation Yrotation Zrotation
					JOINT LeftToeBase
					{
						OFFSET 3.145500 -8.631000 16.059900
						CHANNELS 3 Xrotation Yrotation Zrotation
						End Site
						{
							OFFSET 0.000000 18.501587 0.000000
						}
					}
				}
			}
			JOINT Left_ShortSleeve
			{
				OFFSET 0.265923 -10.480953 1.153800
				CHANNELS 3 Xrotation Yrotation Zrotation
				End Site
				{
					OFFSET 1.725763 19.823879 0.000000
				}
			}
		}
		JOINT RightUpLeg
		{
			OFFSET -6.797100 -2.508499 -1.318700
			CHANNELS 3 Xrotation Yrotation Zrotation
			JOINT RightLeg
			{
				OFFSET -0.082453 -29.241932 0.688000
				CHANNELS 3 Xrotation Yrotation Zrotation
				JOINT RightFoot
				{
					OFFSET 0.082453 -29.568058 -0.264600
					CHANNELS 3 Xrotation Yrotation Zrotation
					JOINT RightToeBase
					{
						OFFSET -3.115300 -8.682800 16.113400
						CHANNELS 3 Xrotation Yrotation Zrotation
						End Site
						{
							OFFSET 0.000000 18.567114 0.000000
						}
					}
				}
			}
			JOINT Right_ShortSleeve
			{
				OFFSET -0.265923 -10.480953 1.153800
				CHANNELS 3 Xrotation Yrotation Zrotation
				End Site
				{
					OFFSET -1.725766 19.823910 0.000000
				}
			}
		}
	}
	JOINT Spine
	{
		OFFSET 0.000000 13.368103 0.470500
		CHANNELS 3 Xrotation Yrotation Zrotation
		JOINT Spine1
		{
			OFFSET 0.147000 13.837402 0.538800
			CHANNELS 3 Xrotation Yrotation Zrotation
			JOINT Spine2
			{
				OFFSET 0.168000 16.242897 -1.435500
				CHANNELS 3 Xrotation Yrotation Zrotation
				JOINT Neck
				{
					OFFSET 0.217200 18.631500 -1.679100
					CHANNELS 3 Xrotation Yrotation Zrotation
					JOINT Head
					{
						OFFSET 0.000000 6.599396 1.385900
						CHANNELS 3 Xrotation Yrotation Zrotation
						JOINT Hat
						{
							OFFSET -0.532200 27.220596 -10.096100
							CHANNELS 3 Xrotation Yrotation Zrotation
							End Site
							{
								OFFSET 0.000000 22.029861 0.000000
							}
						}
						JOINT HairD
						{
							OFFSET -10.777400 17.437393 -1.325900
							CHANNELS 3 Xrotation Yrotation Zrotation
							JOINT HairD1
							{
								OFFSET -3.290299 -11.051193 1.062200
								CHANNELS 3 Xrotation Yrotation Zrotation
								End Site
								{
									OFFSET 0.000000 11.579437 0.000000
								}
							}
						}
						JOINT HairB
						{
							OFFSET -10.777400 17.437393 1.467900
							CHANNELS 3 Xrotation Yrotation Zrotation
							JOINT HairB1
							{
								OFFSET -1.561200 -12.956299 3.590200
								CHANNELS 3 Xrotation Yrotation Zrotation
								End Site
								{
									OFFSET 0.000000 13.534866 0.000000
								}
							}
						}
						JOINT HairA
						{
							OFFSET 9.713100 17.437393 1.467900
							CHANNELS 3 Xrotation Yrotation Zrotation
							JOINT HairA1
							{
								OFFSET 1.561200 -12.956299 3.590200
								CHANNELS 3 Xrotation Yrotation Zrotation
								End Site
								{
									OFFSET 0.000000 13.534866 0.000000
								}
							}
						}
						JOINT HairC
						{
							OFFSET 9.713100 17.437393 -1.325900
							CHANNELS 3 Xrotation Yrotation Zrotation
							JOINT HairC1
							{
								OFFSET 3.290300 -11.051193 1.062200
								CHANNELS 3 Xrotation Yrotation Zrotation
								End Site
								{
									OFFSET 0.000000 11.579437 0.000000
								}
							}
						}
					}
				}
				JOINT LeftShoulder
				{
					OFFSET 5.101800 15.108002 -2.763700
					CHANNELS 3 Xrotation Yrotation Zrotation
					JOINT LeftArm
					{
						OFFSET 9.825497 2.506317 -1.597400
						CHANNELS 3 Xrotation Yrotation Zrotation
						JOINT LeftForeArm
						{
							OFFSET 21.966244 0.000000 0.000000
							CHANNELS 3 Xrotation Yrotation Zrotation
							JOINT LeftHand
							{
								OFFSET 33.879036 0.000000 0.000000
								CHANNELS 3 Xrotation Yrotation Zrotation
								JOINT LeftHandThumb1
								{
									OFFSET 6.715286 -2.359680 3.363841
									CHANNELS 3 Xrotation Yrotation Zrotation
									JOINT LeftHandThumb2
									{
										OFFSET 2.507072 -1.447464 1.447461
										CHANNELS 3 Xrotation Yrotation Zrotation
										JOINT LeftHandThumb3
										{
											OFFSET 2.898338 -1.673355 1.673357
											CHANNELS 3 Xrotation Yrotation Zrotation
											End Site
											{
												OFFSET -0.295959 3.727692 -0.131651
											}
										}
									}
								}
								JOINT LeftHandIndex1
								{
									OFFSET 14.190811 -0.254547 3.840278
									CHANNELS 3 Xrotation Yrotation Zrotation
									JOINT LeftHandIndex2
									{
										OFFSET 3.551727 0.000000 -0.000000
										CHANNELS 3 Xrotation Yrotation Zrotation
										JOINT LeftHandIndex3
										{
											OFFSET 2.894196 0.000000 0.000000
											CHANNELS 3 Xrotation Yrotation Zrotation
											End Site
											{
												OFFSET -1.000603 2.690872 0.366626
											}
										}
									}
								}
								JOINT LeftHandMiddle1
								{
									OFFSET 13.776489 0.000000 0.000000
									CHANNELS 3 Xrotation Yrotation Zrotation
									JOINT LeftHandMiddle2
									{
										OFFSET 3.438232 0.000000 0.000000
										CHANNELS 3 Xrotation Yrotation Zrotation
										JOINT LeftHandMiddle3
										{
											OFFSET 3.691551 0.000000 0.000000
											CHANNELS 3 Xrotation Yrotation Zrotation
											End Site
											{
												OFFSET -1.082298 3.499527 0.457670
											}
										}
									}
								}
								JOINT LeftHandRing1
								{
									OFFSET 13.966164 -0.268127 -3.067488
									CHANNELS 3 Xrotation Yrotation Zrotation
									JOINT LeftHandRing2
									{
										OFFSET 3.162567 0.000000 0.000000
										CHANNELS 3 Xrotation Yrotation Zrotation
										JOINT LeftHandRing3
										{
											OFFSET 3.324348 0.000000 0.000000
											CHANNELS 3 Xrotation Yrotation Zrotation
											End Site
											{
												OFFSET -0.861900 3.184998 0.405154
											}
										}
									}
								}
								JOINT LeftHandPinky1
								{
									OFFSET 13.131393 -0.168503 -5.746925
									CHANNELS 3 Xrotation Yrotation Zrotation
									JOINT LeftHandPinky2
									{
										OFFSET 2.849182 0.000000 0.000000
										CHANNELS 3 Xrotation Yrotation Zrotation
										JOINT LeftHandPinky3
										{
											OFFSET 2.805038 0.000000 0.000000
											CHANNELS 3 Xrotation Yrotation Zrotation
											End Site
											{
												OFFSET -0.882500 2.642609 0.325652
											}
										}
									}
								}
							}
							JOINT Left_Sleeve
							{
								OFFSET 6.592125 -0.646545 0.805568
								CHANNELS 3 Xrotation Yrotation Zrotation
								End Site
								{
									OFFSET -0.000179 20.275787 -0.000000
								}
							}
						}
					}
				}
				JOINT RightShoulder
				{
					OFFSET -5.731700 15.108002 -2.763700
					CHANNELS 3 Xrotation Yrotation Zrotation
					JOINT RightArm
					{
						OFFSET -9.825497 2.506317 -1.597400
						CHANNELS 3 Xrotation Yrotation Zrotation
						JOINT RightForeArm
						{
							OFFSET -21.966242 0.000000 0.000000
							CHANNELS 3 Xrotation Yrotation Zrotation
							JOINT RightHand
							{
								OFFSET -33.879032 0.000000 0.000000
								CHANNELS 3 Xrotation Yrotation Zrotation
								JOINT RightHandThumb1
								{
									OFFSET -6.715286 -2.359680 3.363841
									CHANNELS 3 Xrotation Yrotation Zrotation
									JOINT RightHandThumb2
									{
										OFFSET -2.507072 -1.447464 1.447461
										CHANNELS 3 Xrotation Yrotation Zrotation
										JOINT RightHandThumb3
										{
											OFFSET -2.898338 -1.673355 1.673357
											CHANNELS 3 Xrotation Yrotation Zrotation
											End Site
											{
												OFFSET 0.295959 3.727692 -0.131651
											}
										}
									}
								}
								JOINT RightHandIndex1
								{
									OFFSET -14.190811 -0.254547 3.840278
									CHANNELS 3 Xrotation Yrotation Zrotation
									JOINT RightHandIndex2
									{
										OFFSET -3.551727 0.000000 -0.000000
										CHANNELS 3 Xrotation Yrotation Zrotation
										JOINT RightHandIndex3
										{
											OFFSET -2.894196 0.000000 0.000000
											CHANNELS 3 Xrotation Yrotation Zrotation
											End Site
											{
												OFFSET 1.000603 2.690872 0.366626
											}
										}
									}
								}
								JOINT RightHandMiddle1
								{
									OFFSET -13.776489 0.000000 0.000000
									CHANNELS 3 Xrotation Yrotation Zrotation
									JOINT RightHandMiddle2
									{
										OFFSET -3.438232 0.000000 0.000000
										CHANNELS 3 Xrotation Yrotation Zrotation
										JOINT RightHandMiddle3
										{
											OFFSET -3.691551 0.000000 0.000000
											CHANNELS 3 Xrotation Yrotation Zrotation
											End Site
											{
												OFFSET 1.082298 3.499527 0.457670
											}
										}
									}
								}
								JOINT RightHandRing1
								{
									OFFSET -13.966164 -0.268127 -3.067488
									CHANNELS 3 Xrotation Yrotation Zrotation
									JOINT RightHandRing2
									{
										OFFSET -3.162567 0.000000 0.000000
										CHANNELS 3 Xrotation Yrotation Zrotation
										JOINT RightHandRing3
										{
											OFFSET -3.324348 0.000000 0.000000
											CHANNELS 3 Xrotation Yrotation Zrotation
											End Site
											{
												OFFSET 0.861900 3.184998 0.405154
											}
										}
									}
								}
								JOINT RightHandPinky1
								{
									OFFSET -13.131393 -0.168503 -5.746925
									CHANNELS 3 Xrotation Yrotation Zrotation
									JOINT RightHandPinky2
									{
										OFFSET -2.849182 0.000000 0.000000
										CHANNELS 3 Xrotation Yrotation Zrotation
										JOINT RightHandPinky3
										{
											OFFSET -2.805038 0.000000 0.000000
											CHANNELS 3 Xrotation Yrotation Zrotation
											End Site
											{
												OFFSET 0.882500 2.642609 0.325652
											}
										}
									}
								}
							}
							JOINT Right_Sleeve
							{
								OFFSET -6.592125 -0.646545 0.805568
								CHANNELS 3 Xrotation Yrotation Zrotation
								End Site
								{
									OFFSET 0.000179 20.275787 -0.000000
								}
							}
						}
					}
				}
				JOINT Bind_Right_JacketString
				{
					OFFSET -3.534800 11.969597 7.200700
					CHANNELS 3 Xrotation Yrotation Zrotation
					JOINT Bind_Right_JacketString1
					{
						OFFSET -0.319900 -6.102600 2.794100
						CHANNELS 3 Xrotation Yrotation Zrotation
						End Site
						{
							OFFSET 0.000000 6.719452 0.000000
						}
					}
				}
				JOINT Bind_Left_JacketString
				{
					OFFSET 2.904800 11.969597 7.200700
					CHANNELS 3 Xrotation Yrotation Zrotation
					JOINT Bind_Left_JacketString1
					{
						OFFSET 0.364800 -5.904503 3.186800
						CHANNELS 3 Xrotation Yrotation Zrotation
						End Site
						{
							OFFSET 0.000000 6.719513 0.000000
						}
					}
				}
				JOINT HairE
				{
					OFFSET 5.915200 17.612701 -11.592200
					CHANNELS 3 Xrotation Yrotation Zrotation
					JOINT HairE1
					{
						OFFSET 0.289200 -7.171898 -1.284500
						CHANNELS 3 Xrotation Yrotation Zrotation
						End Site
						{
							OFFSET 0.000000 7.291756 0.000000
						}
					}
				}
				JOINT HairF
				{
					OFFSET -0.864800 17.612701 -11.592200
					CHANNELS 3 Xrotation Yrotation Zrotation
					JOINT HairF1
					{
						OFFSET 0.000000 -14.087097 -2.127501
						CHANNELS 3 Xrotation Yrotation Zrotation
						End Site
						{
							OFFSET 0.000000 14.246841 0.000000
						}
					}
				}
				JOINT HairG
				{
					OFFSET -8.087700 17.612701 -11.592200
					CHANNELS 3 Xrotation Yrotation Zrotation
					JOINT HairG1
					{
						OFFSET -0.293600 -6.081398 -0.910100
						CHANNELS 3 Xrotation Yrotation Zrotation
						End Site
						{
							OFFSET 0.000000 6.156120 0.000000
						}
					}
				}
			}
		}
	}
	JOINT Pouch
	{
		OFFSET 0.000000 4.394501 10.847300
		CHANNELS 3 Xrotation Yrotation Zrotation
		End Site
		{
			OFFSET 0.000000 21.880577 0.000000
		}
	}
	JOINT Bag
	{
		OFFSET -13.229000 4.813004 -0.593300
		CHANNELS 3 Xrotation Yrotation Zrotation
		End Site
		{
			OFFSET 0.000000 21.880577 0.000000
		}
	}
	JOINT OccupyGuyFacialAnim_Joint
	{
		OFFSET 1.000000 -70.206398 -1.655000
		CHANNELS 3 Xrotation Yrotation Zrotation
		End Site
		{
			OFFSET 0.000000 21.880577 0.000000
		}
	}
}
MOTION
Frames: 4
Frame Time: 0.016667
-8.777269 69.139908 -0.734320 12.988986 -129.925388 18.598110 -0.000001 0.000001 0.000000 -100.121769 -20.300852 -1.004220 88.835353 -13.928572 -33.099869 31.489740 -10.679077 -25.345495 0.000001 -0.000003 0.000001 0.000000 0.000003 0.000000 -8.986159 31.000951 -11.284814 22.365613 18.808649 -3.204026 -8.906544 9.402721 12.616123 0.000000 -0.000002 0.000000 -0.000001 -0.000001 0.000000 17.512636 0.150987 -1.680766 8.584644 -0.768854 -1.067724 8.613873 -0.684841 -1.055478 6.128074 42.115237 2.848590 7.484602 47.433878 -29.136928 -0.000000 0.000001 -0.000000 -0.000000 0.000001 -0.000000 -0.000000 0.000001 -0.000001 -0.000000 0.000001 -0.000001 -0.000000 -0.000003 -0.000001 -0.000000 0.000001 -0.000001 -0.000000 -0.000003 -0.000001 -0.000000 0.000001 -0.000000 -0.000000 0.000001 -0.000000 -2.314306 -19.181517 9.645829 -51.327342 -47.749511 -40.680607 -278.688766 -149.109450 -272.924770 -39.791620 -8.511766 26.630691 -1.432193 -10.034949 7.701092 0.670882 15.323985 -3.924356 -0.000001 -0.000001 -0.000001 13.261844 -0.987887 16.342227 -0.165923 0.299359 -25.445550 -0.000001 -0.000000 -0.000000 8.548213 -0.380218 4.744681 0.222590 0.632704 -24.241713 -0.000001 0.000000 -0.000001 6.164208 3.070777 -10.552890 0.029709 0.292418 -24.465401 -0.000002 0.000003 0.000002 -5.502660 7.612686 -8.221741 0.203302 0.257470 -40.928286 -0.000003 -0.000003 0.000002 0.000000 0.000003 0.000002 -5.432986 22.644172 5.004590 -52.631679 7.939678 23.713478 118.664141 44.432689 -113.869226 -26.452913 -2.612706 -41.869486 0.242779 10.291370 -10.807275 1.082982 -16.586935 3.348084 -0.000002 -0.000001 0.000000 19.476566 11.202823 -14.310222 -0.119540 -0.321864 17.065492 0.000002 -0.000001 0.000002 4.333498 2.440267 -5.783571 0.339402 -0.451951 25.920240 -0.000001 -0.000000 -0.000001 -7.040572 -10.715436 4.750293 0.113488 -0.086665 25.185783 0.000002 0.000001 -0.000004 -19.515394 -20.289284 5.002066 0.220580 -0.082074 35.874582 0.000002 0.000002 -0.000005 0.000000 0.000001 0.000003 -0.000001 0.000000 -0.000000 0.000001 -0.000003 0.000002 -0.000001 0.000000 -0.000000 -0.000001 0.000000 -0.000000 -0.000001 0.000000 -0.000000 0.000001 -0.000003 0.000002 -0.000001 0.000000 -0.000000 -0.000001 0.000000 -0.000000 -0.000001 0.000000 -0.000000 0.000001 -0.000003 0.000002 -0.000001 0.000001 0.000000 -0.000001 0.000001 0.000000 -0.000001 0.000001 0.000000 
-9.110576 69.169060 -0.553996 13.309792 -131.922932 19.022712 0.000001 -0.000000 -0.000000 -102.195333 -20.234200 -0.321047 87.868813 -14.699276 -33.646007 31.099221 -10.987463 -26.919075 0.000001 0.000001 -0.000000 -0.000000 -0.000000 0.000002 -7.921583 32.373130 -11.781038 22.053591 19.275975 -3.203206 -9.049634 9.431505 12.876141 0.000000 -0.000001 -0.000000 0.000001 -0.000000 -0.000001 17.890514 0.182127 -1.840463 8.889999 -0.672205 -1.209729 8.918214 -0.587183 -1.199349 6.896474 42.518177 2.371669 7.475149 47.851031 -29.457520 0.000000 0.000002 -0.000000 0.000000 0.000002 -0.000000 0.000000 0.000002 -0.000001 0.000000 0.000002 -0.000001 0.000000 0.000002 -0.000000 0.000000 0.000002 -0.000001 0.000000 0.000002 -0.000000 0.000000 0.000002 -0.000000 0.000000 0.000002 -0.000000 -2.111848 -18.783203 11.594742 -57.541352 -46.188721 -44.501971 -278.771821 -147.854321 -272.712433 -38.912414 -6.764436 26.414730 -1.404039 -9.882336 7.759696 0.819681 15.719824 -3.760165 0.000009 0.000001 -0.000001 13.267446 -0.989211 15.858538 -0.165513 0.299782 -25.929336 -0.000000 0.000000 -0.000002 8.542894 -0.376251 4.260965 0.223910 0.635157 -24.725444 0.000003 -0.000000 -0.000001 6.159667 3.076352 -11.036441 0.030914 0.295193 -24.949177 0.000001 0.000001 -0.000003 -5.511966 7.619100 -8.705098 0.205046 0.259177 -41.412018 -0.000003 0.000000 0.000003 0.000000 -0.000000 -0.000001 -4.710945 23.091015 2.504139 -57.009093 7.316080 23.385400 120.495301 44.831412 -115.618355 -25.258984 -3.285256 -43.084953 0.246959 10.259864 -10.819178 1.096954 -16.624493 3.332885 -0.000001 -0.000001 0.000000 19.476653 11.202787 -14.266149 -0.119517 -0.321927 17.109803 0.000001 -0.000001 0.000000 4.332937 2.440182 -5.739243 0.339600 -0.451887 25.964481 0.000000 0.000000 -0.000001 -7.040671 -10.715777 4.794421 0.113485 -0.087195 25.230026 0.000001 0.000000 -0.000002 -19.515290 -20.289418 5.046178 0.220736 -0.082240 35.918797 -0.000000 0.000000 0.000002 -0.000003 0.000000 -0.000002 0.000001 -0.000000 0.000000 0.000002 -0.000000 -0.000000 0.000001 -0.000000 0.000000 0.000001 -0.000000 0.000000 0.000001 -0.000000 0.000000 0.000002 -0.000000 -0.000000 0.000001 -0.000000 0.000000 0.000001 -0.000000 0.000000 0.000001 -0.000000 0.000000 0.000002 -0.000000 -0.000000 0.000001 -0.000000 -0.000000 0.000001 -0.000000 -0.000000 0.000001 -0.000000 -0.000000 
-9.456306 69.195786 -0.396177 13.667349 -133.724258 19.497373 0.000000 0.000000 -0.000002 -104.077070 -20.155984 0.265948 86.910660 -15.720374 -34.120592 30.383670 -11.187744 -28.549267 -0.000000 0.000000 -0.000002 -0.000000 -0.000002 -0.000003 -6.831554 33.641380 -12.325862 21.879415 19.672266 -3.227389 -9.285113 9.424811 13.101468 -0.000000 -0.000001 0.000000 -0.000000 -0.000001 0.000001 18.245821 0.209384 -1.998776 9.182361 -0.573635 -1.355683 9.209427 -0.487402 -1.347776 7.658620 42.872551 1.900502 7.470990 48.226135 -29.784836 -0.000000 -0.000002 0.000000 -0.000000 -0.000002 0.000000 -0.000000 -0.000002 0.000000 -0.000000 -0.000002 -0.000001 -0.000000 0.000001 -0.000000 -0.000000 -0.000002 -0.000001 -0.000000 0.000001 -0.000000 -0.000000 -0.000002 0.000000 -0.000000 -0.000002 0.000000 -1.708641 -18.296960 14.299372 -63.045187 -44.076655 -47.688654 -278.832719 -146.576734 -272.650141 -36.274219 -4.437901 25.502321 -1.375922 -9.729498 7.818290 0.965348 16.109913 -3.599190 0.000004 -0.000000 -0.000001 13.273248 -0.990521 15.382331 -0.165128 0.300080 -26.405494 0.000002 -0.000003 -0.000001 8.537684 -0.372288 3.784794 0.225188 0.637518 -25.201708 0.000002 -0.000000 0.000001 6.155178 3.082795 -11.512420 0.032058 0.297855 -25.425343 0.000000 -0.000001 0.000001 -5.521695 7.626088 -9.180912 0.206745 0.260797 -41.888194 -0.000001 -0.000004 0.000000 -0.000000 0.000000 -0.000000 -3.961801 23.402304 0.011319 -60.996724 6.507648 22.843730 122.036137 45.207041 -117.083239 -24.195658 -3.692356 -44.353261 0.251445 10.226655 -10.831620 1.112211 -16.666070 3.315882 -0.000000 -0.000001 -0.000000 19.476747 11.202706 -14.217310 -0.119492 -0.321973 17.158789 -0.000002 -0.000000 -0.000002 4.332357 2.440073 -5.690257 0.339846 -0.451867 26.013436 0.000001 -0.000000 0.000001 -7.040668 -10.716131 4.843296 0.113527 -0.087715 25.279025 0.000001 0.000000 -0.000002 -19.514971 -20.289494 5.094955 0.220878 -0.082424 35.967776 -0.000000 0.000003 -0.000004 0.000001 0.000001 0.000002 -0.000003 -0.000001 0.000000 -0.000002 -0.000001 -0.000001 -0.000003 -0.000001 0.000001 -0.000003 -0.000001 0.000001 -0.000003 -0.000001 0.000000 -0.000002 -0.000001 -0.000001 -0.000003 -0.000001 0.000001 -0.000003 -0.000001 0.000001 -0.000003 -0.000001 0.000000 -0.000002 -0.000001 -0.000001 0.000000 0.000000 -0.000002 0.000000 0.000000 -0.000002 0.000000 0.000000 -0.000002 
-9.916624 69.216736 -0.267985 14.029145 -135.317823 20.012181 -0.000000 0.000001 -0.000000 -105.922014 -19.907423 0.570292 86.233788 -16.620927 -34.393520 30.037676 -11.420127 -30.205859 0.000000 0.000000 -0.000001 -0.000000 -0.000001 -0.000000 -5.699803 34.802536 -12.963083 21.994363 20.008161 -3.283207 -9.773751 9.369522 13.252864 0.000000 -0.000000 0.000000 0.000000 -0.000001 -0.000000 18.574343 0.241657 -2.146394 9.456795 -0.479591 -1.500249 9.482783 -0.391734 -1.495366 8.404155 43.182461 1.436524 7.469486 48.560729 -30.109004 0.000000 0.000001 0.000001 0.000000 0.000001 0.000001 0.000000 0.000001 0.000001 0.000000 0.000001 0.000001 -0.000000 -0.000001 -0.000000 0.000000 0.000001 0.000001 -0.000000 -0.000001 -0.000000 0.000000 0.000001 0.000001 0.000000 0.000001 0.000001 -1.353464 -17.783118 16.989121 -68.037714 -42.061835 -50.427324 -278.809251 -145.498247 -272.534930 -32.375288 -1.747018 24.022489 -1.348026 -9.576547 7.876812 1.107514 16.493344 -3.441773 -0.000000 0.000001 -0.000001 13.279097 -0.991800 14.914907 -0.164712 0.300413 -26.872911 0.000002 -0.000000 -0.000000 8.532590 -0.368282 3.317339 0.226397 0.639836 -25.669048 0.000002 -0.000002 0.000000 6.150697 3.089454 -11.979662 0.033251 0.300443 -25.892749 0.000000 -0.000002 0.000002 -5.531903 7.633424 -9.647838 0.208413 0.262457 -42.355588 -0.000002 0.000001 0.000003 -0.000003 0.000003 -0.000000 -3.221337 23.818403 -2.377806 -64.631007 5.220859 21.642971 123.515010 45.342081 -118.648473 -23.655940 -3.889351 -45.553199 0.256046 10.192102 -10.844664 1.128785 -16.711243 3.297561 -0.000000 -0.000001 0.000000 19.476684 11.202586 -14.164234 -0.119393 -0.322010 17.211836 0.000000 0.000000 0.000002 4.331632 2.439932 -5.637013 0.340110 -0.451850 26.066666 0.000001 -0.000001 0.000001 -7.040670 -10.716446 4.896213 0.113576 -0.088292 25.332197 0.000001 0.000001 -0.000003 -19.514621 -20.289507 5.147733 0.221083 -0.082615 36.020908 0.000001 0.000002 -0.000004 -0.000001 0.000001 -0.000002 -0.000001 -0.000002 0.000001 0.000001 -0.000000 -0.000001 -0.000001 -0.000002 0.000002 -0.000001 -0.000002 0.000002 -0.000001 -0.000002 0.000001 0.000001 -0.000000 -0.000001 -0.000001 -0.000002 0.000002 -0.000001 -0.000002 0.000002 -0.000001 -0.000002 0.000001 0.000001 -0.000000 -0.000001 -0.000000 0.000001 -0.000000 -0.000000 0.000001 -0.000000 -0.000000 0.000001 -0.000000 
